<?xml version="1.0" standalone="no"?>
<!DOCTYPE svg PUBLIC "-//W3C//DTD SVG 20010904//EN"
 "http://www.w3.org/TR/2001/REC-SVG-20010904/DTD/svg10.dtd">
<svg version="1.0" xmlns="http://www.w3.org/2000/svg"
 width="1536.000000pt" height="1024.000000pt" viewBox="0 0 1536.000000 1024.000000"
 preserveAspectRatio="xMidYMid meet">

<g transform="translate(0.000000,1024.000000) scale(0.100000,-0.100000)"
fill="#000000" stroke="none">
<path d="M8563 8881 c-85 -22 -149 -96 -159 -187 -5 -41 -1 -58 24 -107 l30
-59 -38 -91 c-38 -90 -39 -92 -77 -98 -21 -3 -52 -13 -69 -22 -35 -18 -89 -76
-98 -104 -5 -16 -21 -18 -178 -19 -326 -2 -591 -75 -828 -228 -82 -54 -226
-189 -274 -260 -37 -52 -38 -53 -79 -49 -66 7 -147 -28 -200 -87 -126 -140
-210 -472 -163 -647 22 -81 60 -157 101 -198 39 -38 129 -85 166 -85 11 0 23
-8 26 -17 18 -50 116 -178 194 -255 84 -82 315 -248 346 -248 7 0 13 -4 13
-10 0 -5 -10 -10 -23 -10 -13 0 -44 -13 -69 -29 -37 -24 -48 -27 -59 -16 -30
27 -237 150 -332 197 -55 27 -140 63 -190 79 -49 17 -108 39 -131 49 -23 10
-49 21 -58 24 -13 4 -18 16 -18 43 0 21 -13 65 -29 100 -45 95 -136 150 -233
141 -25 -2 -38 1 -38 9 0 7 -11 47 -24 89 -22 68 -24 83 -14 120 15 54 -2 134
-38 181 l-26 34 39 42 c21 23 58 68 83 100 31 40 52 57 68 57 37 0 85 25 117
61 17 19 51 48 76 65 54 37 104 109 127 184 25 82 22 226 -7 312 -111 330
-558 557 -879 447 -122 -42 -209 -115 -266 -224 -15 -27 -33 -56 -40 -65 -22
-24 -38 -88 -34 -128 4 -33 -1 -44 -45 -97 -28 -33 -93 -105 -146 -161 -76
-79 -105 -103 -141 -114 -30 -10 -62 -32 -97 -67 -29 -29 -58 -53 -65 -53 -28
0 -135 -59 -165 -91 -17 -19 -43 -56 -57 -82 -13 -26 -36 -62 -51 -79 -62 -74
-85 -170 -66 -276 52 -292 354 -541 678 -559 111 -6 161 2 258 44 111 49 236
151 267 219 6 13 14 24 18 24 4 0 16 -26 27 -58 l20 -58 -44 -38 c-79 -69
-107 -154 -79 -248 8 -30 24 -62 35 -72 14 -13 18 -26 14 -49 -6 -43 39 -183
77 -235 33 -46 97 -87 151 -97 34 -6 37 -10 48 -61 7 -30 41 -161 77 -291 35
-130 64 -248 64 -262 1 -36 35 -110 68 -144 55 -59 135 -82 217 -65 65 14 137
82 155 147 16 61 7 111 -51 283 -54 163 -58 179 -31 156 58 -51 283 -149 430
-188 l42 -11 0 -98 c0 -107 19 -239 50 -342 l19 -65 43 2 c24 1 42 3 42 5 -72
196 -93 466 -50 664 40 187 137 370 229 432 59 39 97 47 182 38 63 -6 66 -8
80 -41 18 -44 63 -86 146 -134 131 -77 317 -120 525 -121 137 0 233 17 335 61
133 57 268 27 387 -84 17 -16 32 -34 32 -38 0 -5 -16 -23 -36 -40 -49 -43 -87
-102 -114 -175 -20 -55 -22 -76 -18 -160 4 -67 13 -117 28 -157 24 -63 79
-125 130 -146 35 -15 36 -23 10 -84 l-19 -46 29 0 c15 0 35 -3 43 -6 11 -4 20
8 32 41 18 45 18 45 54 39 50 -9 158 -50 208 -80 41 -24 44 -24 139 -13 54 6
123 8 155 4 42 -5 64 -3 87 9 45 23 75 21 67 -4 -5 -15 2 -23 34 -40 22 -11
46 -20 54 -20 7 0 40 -16 73 -36 32 -20 64 -37 71 -37 7 0 10 -4 7 -8 -2 -4 4
-13 15 -18 16 -9 19 -6 25 21 3 17 6 44 6 60 0 27 -3 30 -22 23 -88 -28 -145
-17 -187 35 -28 35 -30 42 -19 61 35 58 186 88 275 54 53 -21 115 -73 150
-127 21 -35 27 -38 68 -38 25 0 45 5 45 10 0 27 -46 96 -93 141 -47 45 -153
109 -181 109 -6 0 -38 54 -70 121 -95 194 -207 300 -441 417 -159 79 -358 135
-466 131 -54 -2 -56 -2 -102 47 -25 28 -69 61 -97 74 -27 13 -50 27 -50 30 0
4 21 10 48 14 69 9 290 87 365 129 35 20 87 57 115 82 45 41 53 44 77 35 105
-40 260 54 332 200 71 147 97 281 91 466 -4 101 -10 141 -27 186 -27 68 -89
129 -157 154 -49 17 -49 18 -73 91 -28 86 -90 213 -143 293 -134 200 -366 392
-620 510 l-118 55 0 48 c0 59 -17 94 -67 137 -21 19 -37 41 -35 50 1 9 18 52
37 96 30 68 39 80 65 87 17 4 48 25 70 47 73 73 79 179 15 265 -43 58 -156 95
-232 76z m98 -75 c21 -4 46 -18 60 -33 13 -15 16 -22 7 -14 -15 11 -16 10 -9
-16 9 -30 8 -32 -43 -86 -22 -25 -45 -37 -72 -42 -21 -3 -47 -11 -57 -16 -26
-14 -53 12 -62 57 -9 50 24 114 72 142 21 12 45 20 53 18 8 -3 31 -7 51 -10z
m-83 -289 l30 -12 -43 -105 -43 -105 -34 3 c-18 2 -35 6 -37 8 -7 7 83 224 93
224 2 0 17 -6 34 -13z m-2588 -193 c84 -24 219 -98 283 -155 54 -48 137 -153
150 -191 10 -28 2 -21 -26 21 -85 128 -287 269 -422 295 -16 3 -48 10 -70 15
-44 12 -167 13 -204 2 -16 -4 14 -12 93 -24 86 -12 139 -26 199 -53 45 -20 88
-40 94 -46 18 -14 7 -27 -17 -21 -14 4 -22 -1 -29 -18 -5 -13 -6 -28 -4 -32 3
-5 -14 -6 -38 -2 -24 3 -55 8 -69 9 -14 2 -38 9 -55 16 -16 6 -71 20 -122 31
-118 25 -221 18 -263 -17 -63 -53 -36 20 29 79 58 53 157 97 246 111 48 7 165
-4 225 -20z m2542 -83 c40 -17 102 -71 82 -71 -5 0 -14 8 -21 19 -18 29 -60
35 -85 11 -12 -11 -27 -20 -33 -20 -6 0 -16 -8 -24 -18 -11 -17 -19 -17 -99
-5 -48 7 -93 14 -99 15 -19 4 35 68 71 84 40 19 149 11 208 -15z m-212 -145
c512 -97 887 -332 1095 -686 50 -85 99 -197 108 -250 6 -32 3 -38 -28 -63 -93
-74 -163 -244 -201 -492 -22 -147 -13 -319 21 -385 14 -27 13 -30 -13 -57
-104 -111 -297 -186 -562 -218 -391 -48 -925 36 -1320 208 -207 90 -319 165
-449 302 -112 118 -175 233 -200 365 -16 88 -7 331 17 426 41 162 104 310 174
411 119 174 348 330 586 398 186 54 279 65 492 61 120 -3 228 -11 280 -20z
m-2735 -32 c50 -4 103 -8 118 -7 15 0 25 -2 22 -5 -10 -10 123 -71 142 -66 10
3 27 -2 38 -11 19 -16 19 -16 -10 -10 l-30 7 24 -26 c25 -26 16 -35 -17 -16
-45 25 -132 58 -137 51 -2 -5 -23 -4 -45 2 -27 8 -36 14 -27 20 7 5 -2 6 -23
2 -27 -5 -32 -4 -20 5 12 9 6 10 -23 5 -24 -4 -37 -3 -33 3 7 12 -83 20 -116
10 -21 -5 -20 -6 7 -8 l30 -2 -35 -8 c-19 -4 -43 -11 -52 -15 -27 -11 -23 27
5 52 28 26 46 33 72 28 11 -2 61 -7 110 -11z m272 -60 c-3 -3 -12 -4 -19 -1
-8 3 -5 6 6 6 11 1 17 -2 13 -5z m-234 -59 c192 -50 392 -215 481 -397 25 -51
46 -106 46 -121 0 -34 -120 -185 -243 -305 l-74 -74 -23 73 c-65 202 -281 392
-521 459 -40 11 -97 20 -126 20 -52 0 -67 11 -39 27 22 13 179 185 231 255 26
35 57 66 69 70 39 11 141 8 199 -7z m818 -326 c-21 -55 -70 -119 -91 -119 -7
0 2 16 19 35 34 40 80 124 82 152 1 15 2 15 6 2 2 -9 -5 -40 -16 -70z m397
-46 c-70 -137 -133 -327 -146 -444 -7 -60 -9 -64 -32 -62 -14 2 -41 20 -61 43
l-36 40 -7 -38 c-3 -20 -6 -73 -7 -117 -1 -55 -3 -72 -9 -55 -14 43 -11 198 6
278 31 152 116 310 184 344 34 18 115 25 108 11z m-1608 -39 c79 -18 94 -29
50 -39 -16 -4 -30 -10 -30 -15 0 -4 -19 -3 -42 3 -34 8 -38 12 -22 18 13 5 14
8 4 9 -94 7 -119 6 -156 -5 -24 -7 -45 -11 -48 -8 -2 3 -21 -7 -41 -22 -48
-38 -57 -24 -11 19 58 55 167 70 296 40z m166 -61 c-2 -3 -13 0 -24 6 -11 6
-23 7 -27 3 -5 -4 -5 -2 -1 5 5 9 13 10 31 1 14 -6 23 -13 21 -15z m-271 -98
c44 -15 111 -47 150 -70 135 -83 72 -82 -78 1 -39 21 -50 10 -42 -42 6 -41 5
-44 -17 -45 -13 -1 -27 0 -33 1 -5 1 -23 4 -40 6 -16 2 -38 7 -47 10 -14 4
-16 1 -11 -12 5 -14 3 -16 -13 -10 -51 20 -195 48 -245 48 -32 0 -69 -7 -88
-16 -38 -20 -39 -16 -2 37 75 109 118 128 271 124 95 -3 129 -8 195 -32z
m-227 -201 c79 -27 195 -84 188 -91 -2 -3 -13 2 -25 9 -16 10 -25 10 -40 1
-16 -10 -20 -9 -24 9 -3 11 -10 17 -16 13 -6 -3 -11 -2 -11 4 0 6 -7 7 -17 4
-10 -4 -14 -2 -10 4 15 25 -202 48 -251 27 -18 -7 -30 -9 -27 -4 3 5 -6 5 -22
-1 -15 -5 -36 -23 -45 -40 -10 -16 -13 -27 -8 -24 6 4 10 -6 9 -22 0 -24 -2
-25 -8 -8 -7 16 -9 14 -14 -14 -16 -77 1 -188 35 -229 6 -7 8 -15 5 -18 -3 -3
-20 25 -38 62 -27 54 -35 84 -37 140 -5 89 10 137 51 168 38 29 50 31 150 34
62 2 93 -3 155 -24z m242 -119 c0 -12 -19 -12 -23 0 -4 9 -1 12 9 8 7 -3 14
-7 14 -8z m864 -82 c1 -29 -5 -48 -18 -60 -18 -17 -18 -17 -6 6 11 22 8 91 -6
139 -3 9 2 4 12 -13 9 -16 18 -49 18 -72z m3655 68 c37 -17 66 -52 76 -91 3
-14 3 -20 -2 -14 -4 6 -21 10 -37 8 -26 -3 -27 -2 -10 11 15 11 16 14 4 14
-19 0 -65 -25 -66 -36 -4 -25 -17 -53 -25 -53 -5 0 -6 -6 -3 -14 3 -7 -1 -20
-8 -27 -18 -19 -40 -70 -33 -77 3 -3 -1 -15 -10 -28 -15 -24 -45 -141 -45
-180 0 -37 -50 -33 -101 8 -38 30 -40 34 -34 73 39 251 143 444 229 428 17 -3
46 -13 65 -22z m-4819 -101 c0 -5 -4 -10 -9 -10 -6 0 -13 5 -16 10 -3 6 1 10
9 10 9 0 16 -4 16 -10z m97 -26 c-3 -3 -12 -4 -19 -1 -8 3 -5 6 6 6 11 1 17
-2 13 -5z m4831 -139 c3 -82 0 -133 -12 -196 -30 -144 -92 -279 -129 -279 -6
0 0 11 12 24 13 14 20 29 16 35 -3 6 -1 11 4 11 6 0 11 5 11 10 0 6 -11 3 -25
-6 -24 -16 -25 -16 -19 2 4 11 13 26 21 35 9 11 13 37 12 80 -2 39 3 74 11 89
8 15 16 79 20 167 3 79 8 144 11 146 2 2 13 9 24 15 30 16 37 -6 43 -133z
m-4136 28 c2 -73 -13 -103 -93 -182 -63 -62 -88 -77 -69 -41 6 11 15 20 20 20
19 0 87 76 109 123 19 39 22 60 19 108 -3 35 -1 54 4 45 5 -8 9 -41 10 -73z
m387 -49 c10 -38 21 -82 25 -99 l7 -30 -16 23 c-10 13 -23 51 -31 85 -7 34
-16 73 -20 87 -5 19 -4 22 5 14 7 -7 21 -43 30 -80z m-206 -126 c9 -27 12 -48
8 -48 -4 0 -13 18 -20 41 -7 23 -15 48 -18 58 -4 11 -3 13 4 6 6 -5 17 -31 26
-57z m445 -40 c45 -27 96 -126 57 -112 -11 5 -13 2 -9 -11 14 -36 -61 -49 -91
-15 -11 12 -26 18 -35 15 -10 -3 -23 2 -31 12 -13 16 -12 17 4 4 9 -8 20 -12
23 -9 5 6 -48 54 -67 60 -24 8 0 58 34 73 37 16 68 11 115 -17z m-265 -64 c29
-5 46 -17 77 -57 22 -27 40 -59 39 -71 0 -11 -3 -15 -6 -8 -7 18 -28 15 -49
-9 -25 -28 -95 -63 -166 -84 -31 -9 -61 -22 -67 -29 -12 -14 -57 -10 -67 5 -9
15 -24 10 -24 -8 0 -15 -2 -15 -21 3 -50 50 -25 175 43 210 84 44 165 60 241
48z m3499 -96 c-7 -7 -12 -8 -12 -2 0 14 12 26 19 19 2 -3 -1 -11 -7 -17z
m-3044 -102 c67 -35 96 -101 90 -204 -4 -67 -35 -149 -67 -175 -10 -8 -9 -4 3
15 10 15 15 31 12 37 -3 5 1 11 9 15 8 3 15 11 15 17 0 8 -4 8 -15 -1 -8 -7
-15 -8 -15 -3 0 5 -7 10 -15 10 -8 0 -15 -6 -15 -14 0 -13 -41 -19 -53 -7 -3
3 -2 14 2 23 36 72 42 186 11 245 -28 55 -15 69 38 42z m-278 -70 c0 -41 -53
-83 -164 -131 -79 -33 -120 -45 -156 -45 -28 0 -50 5 -50 10 0 6 -5 10 -11 10
-5 0 -7 -5 -3 -11 4 -7 1 -10 -7 -7 -23 8 -48 61 -42 89 4 24 8 26 69 27 48 2
91 12 171 43 165 64 193 66 193 15z m559 -44 c90 -38 263 -140 349 -204 l53
-39 -29 -37 c-69 -89 -132 -233 -158 -364 -9 -49 -21 -88 -26 -88 -31 0 -164
37 -228 63 -143 59 -340 197 -340 238 0 8 21 22 46 33 62 25 139 103 171 172
30 67 44 214 23 253 -11 22 -11 23 22 16 18 -4 71 -23 117 -43z m2781 -1 c0
-17 -18 -21 -24 -6 -3 9 0 15 9 15 8 0 15 -4 15 -9z m-3348 -108 c-7 -42 -58
-89 -121 -111 -81 -29 -114 -34 -145 -22 -35 13 -47 5 -37 -23 5 -13 20 -25
37 -28 l29 -7 -28 -1 c-41 -2 -98 54 -100 99 -2 27 2 34 13 31 54 -13 160 12
265 64 28 13 60 25 71 25 18 0 20 -5 16 -27z m111 -316 c26 -89 59 -198 72
-242 13 -44 40 -124 59 -179 20 -54 36 -103 36 -110 -1 -23 -91 180 -120 272
-51 157 -119 415 -114 424 10 17 17 -1 67 -165z m-193 -105 c12 -48 26 -91 30
-97 4 -5 13 -28 20 -50 7 -22 17 -45 22 -52 6 -7 5 -19 -2 -32 -6 -12 -7 -21
-2 -21 17 0 34 -85 37 -176 2 -50 8 -102 15 -115 l11 -24 -19 25 c-11 13 -32
75 -47 140 -15 63 -49 192 -75 285 -26 94 -50 185 -53 203 -6 32 -6 32 17 17
17 -12 29 -38 46 -103z m3098 -62 c206 -34 483 -176 606 -312 57 -63 70 -87
39 -72 -10 4 -52 10 -93 12 -59 3 -88 -1 -132 -18 -120 -45 -212 -167 -213
-282 0 -32 -1 -58 -3 -58 -1 0 -20 11 -41 24 -54 34 -144 71 -221 90 -178 45
-236 94 -266 225 -30 126 -1 256 74 335 63 66 116 77 250 56z m657 -449 c47
-21 63 -38 91 -100 l22 -46 -87 -6 c-90 -5 -188 -40 -174 -62 4 -6 1 -7 -6 -3
-7 5 -35 -7 -69 -29 l-56 -38 -24 28 c-28 33 -24 61 17 120 38 54 105 94 169
102 59 7 70 23 17 23 -31 0 -34 2 -23 15 18 20 75 18 123 -4z"/>
<path d="M7348 7740 c-94 -16 -176 -77 -232 -172 -29 -50 -90 -285 -107 -410
-31 -243 90 -374 384 -414 446 -61 835 -141 1097 -227 108 -35 138 -41 215
-41 221 -1 308 109 370 468 44 260 33 329 -72 434 -73 73 -147 105 -333 143
-85 17 -231 46 -325 65 -409 83 -877 165 -927 163 -12 -1 -44 -5 -70 -9z m62
-70 c0 -5 -4 -10 -9 -10 -5 0 -25 -33 -46 -72 -24 -48 -55 -89 -90 -121 -42
-37 -64 -68 -96 -137 -31 -65 -48 -90 -61 -90 -24 0 -23 24 6 135 40 155 91
236 178 279 52 26 118 35 118 16z m-23 -224 c-3 -8 1 -17 9 -20 8 -3 13 -2 10
3 -6 9 40 21 83 21 15 0 34 -9 44 -20 21 -25 21 -30 0 -30 -37 -1 -52 -24 -46
-68 5 -36 2 -45 -25 -72 -17 -16 -40 -30 -52 -30 -27 0 -62 18 -74 38 -15 26
-35 -26 -37 -98 -1 -36 -4 -53 -6 -37 -2 15 -9 27 -14 27 -5 0 -9 10 -10 23
-1 21 -1 21 -9 -3 -8 -24 -8 -23 -9 8 -1 18 3 31 8 28 5 -3 14 8 20 26 12 34
6 51 -10 28 -12 -19 -2 32 16 76 20 48 120 147 102 100z m1206 -183 c-7 -2
-19 -2 -25 0 -7 3 -2 5 12 5 14 0 19 -2 13 -5z m-20 -14 c34 -9 37 -13 37 -44
0 -28 -5 -36 -23 -41 -22 -5 -24 -10 -19 -53 3 -40 0 -52 -20 -75 -16 -19 -34
-28 -52 -28 -15 0 -30 -7 -33 -14 -3 -8 -9 -11 -14 -8 -5 3 -7 9 -5 13 3 4 -1
8 -8 8 -17 0 -27 -57 -19 -98 3 -16 2 -29 -1 -29 -17 0 -36 31 -37 57 0 25 -1
26 -9 8 l-9 -20 -2 20 c-6 52 -3 115 4 115 5 0 6 7 3 16 -4 10 1 26 11 37 10
11 12 17 4 12 -8 -5 -7 2 4 19 11 17 24 25 33 21 12 -4 12 -3 3 9 -10 11 -6
19 21 38 29 20 74 45 88 47 3 1 22 -4 43 -10z"/>
<path d="M6930 7450 c-9 -6 -10 -10 -3 -10 6 0 15 5 18 10 8 12 4 12 -15 0z"/>
<path d="M6973 7448 c-22 -29 -24 -41 -3 -20 12 13 20 25 17 28 -2 2 -9 -1
-14 -8z"/>
<path d="M6920 7419 c0 -5 5 -7 10 -4 6 3 10 8 10 11 0 2 -4 4 -10 4 -5 0 -10
-5 -10 -11z"/>
<path d="M9140 7242 c1 -29 34 -77 55 -79 28 -2 55 15 55 35 0 31 -23 49 -67
55 -36 4 -43 2 -43 -11z"/>
<path d="M7573 6629 c-16 -16 21 -142 59 -201 37 -58 88 -100 165 -135 47 -22
72 -26 134 -26 95 2 144 15 205 56 56 37 137 137 129 158 -4 11 -25 13 -101
11 -108 -4 -251 16 -384 55 -85 24 -180 69 -180 85 0 11 -14 10 -27 -3z m282
-249 c30 -7 30 -7 5 -13 -14 -3 -34 -8 -45 -10 -11 -2 -19 -9 -17 -15 1 -9 -3
-9 -18 0 -20 13 -26 29 -13 41 8 8 48 7 88 -3z"/>
<path d="M5690 7996 c0 -2 9 -6 20 -9 11 -3 18 -1 14 4 -5 9 -34 13 -34 5z"/>
<path d="M4958 7363 c7 -3 16 -2 19 1 4 3 -2 6 -13 5 -11 0 -14 -3 -6 -6z"/>
<path d="M5127 7329 c7 -7 15 -10 18 -7 3 3 -2 9 -12 12 -14 6 -15 5 -6 -5z"/>
<path d="M6368 6729 l-78 -30 49 -49 49 -49 79 26 c43 14 79 27 80 28 3 2 -96
105 -100 105 -1 -1 -37 -14 -79 -31z"/>
<path d="M9896 6653 c-3 -16 -8 -44 -11 -63 l-6 -35 402 -130 c221 -71 408
-136 416 -143 33 -34 29 -93 -32 -432 -73 -402 -132 -644 -231 -952 -21 -65
-36 -120 -33 -122 2 -2 35 -6 74 -8 l69 -3 39 120 c98 306 207 788 258 1135
10 74 22 153 25 175 9 62 -12 124 -60 171 -39 39 -56 47 -281 119 -132 42
-322 104 -423 136 -100 32 -187 59 -191 59 -5 0 -12 -12 -15 -27z"/>
<path d="M6761 6502 c-1 -13 3 -21 7 -18 5 3 15 -6 22 -19 7 -13 19 -26 27
-30 9 -3 5 7 -9 24 -12 15 -28 37 -35 47 -11 18 -12 18 -12 -4z"/>
<path d="M6708 6503 c7 -3 16 -2 19 1 4 3 -2 6 -13 5 -11 0 -14 -3 -6 -6z"/>
<path d="M6683 6483 c9 -2 25 -2 35 0 9 3 1 5 -18 5 -19 0 -27 -2 -17 -5z"/>
<path d="M5450 6388 c-58 -22 -145 -51 -195 -65 -106 -31 -292 -107 -319 -131
-30 -27 -56 -93 -56 -144 0 -85 86 -551 149 -798 31 -124 99 -359 108 -373 3
-5 31 -6 63 -2 l57 7 17 -74 c25 -106 26 -108 43 -108 19 0 19 4 -46 210 -89
283 -172 644 -226 983 -28 173 -26 200 19 220 67 31 227 93 361 138 l140 48 3
65 c2 36 -1 66 -5 65 -4 0 -55 -18 -113 -41z"/>
<path d="M6829 6408 c-1 -7 -1 -16 0 -20 1 -10 -28 -3 -40 9 -16 16 -56 -4
-63 -32 -5 -18 -12 -22 -33 -19 -24 3 -22 2 7 -9 19 -6 41 -16 48 -20 6 -5 18
-5 25 -1 6 4 9 4 5 -1 -10 -11 71 -47 85 -38 5 3 7 1 4 -4 -4 -6 0 -14 9 -17
8 -3 76 -44 150 -91 134 -84 136 -85 165 -70 16 9 29 17 29 18 0 2 -50 37
-112 78 -62 41 -138 98 -170 128 -35 32 -64 51 -73 48 -8 -4 -17 -2 -20 4 -4
5 -2 8 3 7 6 -2 10 2 10 7 0 6 -4 9 -10 7 -5 -1 -7 2 -4 7 4 5 2 12 -4 16 -5
3 -11 0 -11 -7z m6 -98 c-3 -5 -1 -10 6 -10 7 0 10 -3 6 -6 -9 -9 -28 6 -22
17 4 5 8 9 11 9 3 0 2 -4 -1 -10z"/>
<path d="M9803 6323 c-36 -76 -107 -163 -163 -198 -61 -38 -145 -59 -192 -47
-38 10 -41 9 -106 -41 -80 -60 -214 -126 -334 -164 -49 -15 -88 -31 -88 -35 0
-4 5 -8 10 -8 6 0 30 -20 54 -43 42 -42 46 -44 122 -50 101 -8 235 -45 374
-102 128 -52 210 -100 310 -181 96 -77 155 -151 202 -254 22 -47 45 -96 51
-109 7 -14 31 -31 60 -41 27 -10 73 -37 103 -60 31 -23 57 -40 59 -38 7 7 66
210 94 323 60 240 151 707 158 815 l6 75 -114 37 c-63 20 -213 71 -334 113
-121 41 -225 75 -230 75 -6 0 -25 -30 -42 -67z m126 -383 c1 -3 -3 -11 -8 -18
-7 -11 -12 -12 -29 -1 -20 12 -20 14 -4 41 l16 28 13 -23 c7 -12 12 -24 12
-27z m82 -219 l24 -9 -28 -11 c-27 -11 -35 -22 -42 -58 -2 -10 -4 -20 -5 -23
-1 -3 -6 11 -13 30 -8 22 -23 40 -41 49 l-29 14 39 13 c21 7 41 19 43 25 3 9
8 7 16 -4 6 -9 23 -21 36 -26z"/>
<path d="M7241 5787 c-16 -20 30 -61 58 -52 21 6 36 38 26 55 -9 15 -71 12
-84 -3z"/>
<path d="M8010 5481 c8 -6 11 -11 5 -11 -22 0 35 -29 88 -45 62 -18 62 -18 47
-45 -11 -20 -142 -90 -169 -90 -20 -1 -56 -30 -64 -52 -4 -10 -14 -18 -24 -17
-11 0 -13 3 -5 6 6 2 12 12 12 20 0 23 -70 7 -97 -22 -28 -29 -63 -41 -73 -25
-6 9 -9 9 -12 -1 -4 -11 -27 -14 -94 -13 -97 1 -187 22 -228 55 -25 20 -26 20
-26 2 0 -11 6 -27 13 -36 22 -31 246 -88 540 -137 173 -30 170 -32 241 166 57
161 49 190 -66 224 -39 12 -78 24 -87 27 -14 4 -14 3 -1 -6z"/>
<path d="M6572 5462 c19 -25 31 -32 55 -32 12 0 25 -4 28 -10 4 -6 -1 -7 -12
-3 -16 6 -16 5 -4 -10 9 -12 11 -30 7 -59 -6 -40 -5 -44 23 -56 37 -17 171
-151 171 -172 0 -26 -136 -160 -162 -160 -6 0 -19 -6 -27 -13 -9 -8 -38 -20
-66 -27 -27 -7 -54 -16 -60 -20 -22 -17 -145 -34 -145 -21 0 5 6 11 12 13 9 3
8 9 -5 22 -9 10 -17 24 -17 33 0 12 -8 14 -42 10 -24 -3 -52 -2 -63 2 -15 6
-22 2 -33 -18 -9 -17 -10 -27 -3 -29 15 -5 14 -32 -2 -32 -7 0 -17 -10 -22
-22 -6 -13 -18 -23 -27 -23 -10 0 -18 -5 -17 -10 0 -6 -10 -13 -23 -17 -22 -7
93 -1 157 8 57 8 250 24 288 24 37 0 37 0 37 -40 l0 -41 76 42 c69 38 191 79
235 79 17 0 17 3 3 42 -35 101 -57 210 -63 322 l-6 119 -70 24 c-38 12 -78 21
-88 19 -9 -2 -15 0 -11 5 3 5 0 9 -5 9 -6 0 -38 13 -72 30 -43 21 -57 24 -47
12z"/>
<path d="M6525 5074 c-9 -15 -12 -23 -6 -20 11 7 35 46 28 46 -3 0 -12 -12
-22 -26z"/>
<path d="M6400 4975 c-14 -8 -20 -14 -14 -15 5 0 19 7 30 15 24 18 16 19 -16
0z"/>
<path d="M9043 4889 c-24 -25 -15 -39 26 -39 l39 0 -10 -46 c-6 -25 -7 -48 -4
-52 4 -3 34 8 69 24 34 17 73 35 86 40 22 9 19 12 -47 42 -85 38 -142 49 -159
31z"/>
<path d="M10108 4895 c-4 -4 -2 -19 3 -33 13 -33 1 -44 -53 -52 -37 -5 -30 -7
50 -14 52 -4 96 -6 98 -4 2 3 -18 28 -44 57 -26 29 -50 50 -54 46z"/>
<path d="M5471 4854 c0 -11 3 -14 6 -6 3 7 2 16 -1 19 -3 4 -6 -2 -5 -13z"/>
<path d="M6955 4850 c-108 -16 -232 -65 -333 -131 l-32 -21 6 57 7 58 -44 -6
c-24 -4 -82 -9 -129 -12 -250 -18 -1119 -122 -1161 -140 -14 -5 -19 9 -35 89
-20 109 -16 106 -125 86 -30 -6 -126 -22 -214 -36 -88 -15 -178 -30 -200 -34
-22 -4 -85 -15 -140 -25 -55 -9 -104 -20 -108 -24 -20 -19 -319 -672 -436
-953 -148 -356 -360 -932 -348 -944 2 -3 16 0 31 6 43 16 65 10 26 -7 l-35
-15 150 -59 c229 -91 266 -100 395 -106 149 -7 190 0 725 122 138 31 253 59
257 61 3 2 51 -54 106 -124 l100 -129 -105 -307 c-58 -168 -104 -308 -102
-311 2 -2 83 16 179 41 181 46 673 147 770 159 30 3 80 10 110 15 30 5 97 14
148 21 87 11 92 13 92 35 0 32 9 30 61 -9 200 -148 581 -355 896 -485 193 -80
249 -87 368 -47 311 104 799 359 1003 522 41 34 42 34 42 11 0 -23 4 -24 183
-46 308 -37 737 -122 995 -197 47 -14 87 -23 89 -22 4 5 -35 125 -112 342 -37
105 -74 211 -83 237 l-15 46 33 44 c18 23 38 48 44 53 6 6 37 43 70 83 32 39
65 72 74 72 14 0 185 -37 447 -96 93 -21 146 -28 235 -28 108 0 121 2 210 36
52 20 114 45 138 55 l42 18 -329 73 c-539 120 -951 199 -1181 227 -54 7 -103
24 -70 25 17 0 160 -19 380 -50 242 -34 577 -98 1015 -195 112 -25 211 -48
219 -51 8 -3 16 2 20 13 7 25 47 228 96 488 23 121 45 240 50 265 5 25 18 99
29 165 26 147 79 451 86 485 7 33 55 311 58 330 2 17 -1 17 -368 65 -60 8
-146 19 -190 25 -44 6 -105 13 -135 16 -30 3 -60 7 -67 9 -18 6 -21 -4 -34
-90 -6 -42 -15 -73 -19 -68 -4 4 -22 43 -40 85 -24 57 -39 78 -56 82 -26 7
-150 20 -374 41 -85 8 -180 17 -211 20 l-57 6 -7 -58 c-13 -111 -10 -109 -69
-57 -103 91 -283 154 -449 157 -176 4 -268 -17 -391 -88 -44 -25 -80 -44 -81
-42 -1 1 1 31 5 67 4 36 4 68 1 71 -18 18 -713 32 -1518 29 l-173 0 0 -29 0
-30 -43 19 c-89 40 -255 57 -372 40z m246 -124 c85 -18 154 -54 204 -105 48
-50 51 -44 -84 -195 l-93 -106 -30 25 c-50 42 -85 55 -146 56 -128 2 -223 -83
-252 -224 -21 -103 12 -197 82 -233 74 -39 203 -13 290 57 l37 29 12 -22 c6
-13 41 -70 77 -127 l66 -104 -49 -44 c-111 -98 -255 -145 -439 -142 -115 1
-126 3 -193 34 -172 80 -252 210 -259 420 -5 175 43 311 162 467 136 175 385
262 615 214z m999 5 l226 -6 -12 -109 c-7 -60 -15 -130 -19 -157 l-7 -49 -139
0 c-104 0 -139 -3 -139 -12 0 -28 -41 -423 -61 -595 l-22 -183 -182 0 c-100 0
-184 2 -186 5 -6 5 16 209 56 535 14 113 25 215 25 228 0 22 -1 22 -141 22
l-141 0 6 38 c3 20 10 89 16 152 7 63 13 121 15 128 5 13 285 15 705 3z m689
-16 c2 -2 -8 -89 -23 -192 -14 -103 -30 -224 -35 -268 -6 -44 -17 -127 -25
-185 -21 -146 -66 -472 -66 -479 0 -3 -39 -3 -87 1 -49 3 -132 7 -185 7 -89 1
-98 3 -98 20 0 20 24 234 40 355 31 232 61 460 79 591 12 83 21 152 21 155 0
6 373 0 379 -5z m-3809 -10 c0 -2 18 -109 39 -237 22 -128 41 -246 44 -263 13
-88 54 -312 103 -564 30 -155 54 -284 52 -286 -2 -1 -59 -13 -128 -25 -69 -12
-159 -29 -200 -36 -41 -8 -80 -12 -86 -10 -7 3 -15 29 -19 58 -10 81 -35 221
-39 225 -2 2 -93 -13 -202 -35 l-199 -39 -48 -124 c-26 -68 -58 -148 -70 -178
l-23 -55 -189 -49 c-105 -26 -200 -51 -212 -54 -27 -6 -29 4 -7 55 8 20 37 96
64 167 84 227 238 605 315 775 26 58 65 143 85 190 26 61 157 342 185 397 2 4
186 39 275 53 41 7 107 18 145 25 76 14 115 18 115 10z m4595 -28 c127 -35
218 -99 290 -207 74 -110 90 -167 90 -325 -1 -108 -4 -142 -24 -200 -89 -272
-303 -435 -571 -435 -180 0 -294 44 -405 154 -121 120 -174 269 -162 453 11
166 79 305 210 430 121 115 240 156 422 148 55 -3 123 -11 150 -18z m-3255
-13 c0 -7 -9 -82 -20 -166 -10 -84 -26 -220 -35 -301 -23 -211 -39 -295 -74
-379 -64 -152 -193 -265 -361 -316 -132 -40 -321 -38 -404 5 -53 28 -113 92
-140 152 -46 104 -46 150 9 641 8 74 18 163 22 198 5 54 10 65 29 72 32 13
342 45 350 37 6 -6 -11 -163 -51 -477 -21 -159 -21 -239 -2 -277 37 -70 156
-41 203 49 16 30 30 130 70 492 16 141 32 250 38 252 14 4 302 31 339 31 15 0
27 -6 27 -13z m4017 -50 l162 -17 42 -96 c95 -217 114 -263 179 -426 38 -93
71 -163 74 -155 2 8 16 92 31 185 14 94 35 233 47 310 12 77 23 141 24 143 1
2 69 -6 151 -17 81 -12 168 -24 193 -27 69 -8 81 -14 75 -33 -4 -15 -52 -276
-90 -496 -87 -501 -136 -769 -143 -786 -6 -15 -20 -14 -147 12 -77 16 -162 34
-189 41 l-49 13 -52 125 c-28 69 -71 168 -94 220 -23 52 -63 143 -89 203 -26
59 -50 107 -54 107 -4 0 -10 -21 -13 -47 -4 -27 -13 -84 -20 -128 -46 -264
-55 -315 -61 -357 -3 -27 -11 -48 -18 -48 -27 1 -356 57 -361 62 -3 3 15 131
40 284 92 567 136 840 141 879 9 68 14 77 37 72 12 -3 95 -13 184 -23z m-1977
-1278 c169 -14 332 -31 415 -41 219 -28 505 -70 605 -90 25 -5 25 -7 22 -90
-2 -49 -7 -83 -13 -80 -5 4 -9 17 -9 30 0 13 -4 27 -10 30 -5 3 -10 13 -10 21
0 29 -28 43 -131 64 -91 18 -104 19 -111 5 -5 -8 -14 -15 -21 -15 -7 0 -66
-27 -132 -60 -66 -33 -126 -60 -132 -60 -7 0 -13 -4 -13 -9 0 -10 -36 -25 -69
-30 -6 0 -22 -12 -36 -25 -28 -27 -246 -100 -327 -111 l-47 -6 -6 -57 c-11
-95 -8 -92 -78 -91 -34 0 -82 4 -107 7 l-45 7 3 41 3 41 -48 -8 c-26 -4 -94
-8 -150 -8 -90 -1 -107 -4 -154 -28 -50 -26 -61 -28 -179 -28 -69 1 -141 2
-160 3 -53 4 -355 -5 -387 -12 -15 -3 -77 -10 -138 -16 -176 -16 -208 -20
-245 -30 -19 -5 -105 -16 -190 -25 -85 -8 -186 -22 -225 -31 -38 -8 -110 -22
-160 -29 -49 -8 -112 -20 -140 -28 -27 -8 -67 -18 -87 -21 -21 -4 -38 -11 -38
-15 0 -12 -50 -64 -56 -58 -7 6 -18 717 -12 717 3 0 86 13 184 29 234 39 229
38 589 81 106 13 344 31 530 40 244 13 1115 3 1315 -14z m-2955 -276 c-4 -6
-15 -8 -25 -5 -10 3 -21 1 -25 -5 -4 -7 -18 -9 -31 -6 -15 4 -24 2 -24 -5 0
-7 -10 -9 -25 -7 -14 3 -25 2 -25 -2 0 -15 -203 -40 -216 -27 -4 4 4 7 18 7
14 0 38 5 55 10 33 12 233 47 276 49 17 1 26 -3 22 -9z m-381 -68 c3 -5 -27
-15 -67 -22 -40 -7 -193 -36 -341 -66 -148 -29 -271 -52 -273 -50 -5 4 196 52
387 91 69 15 150 32 180 39 67 16 107 19 114 8z m3883 -41 c22 -19 28 -57 8
-58 -5 0 -17 -4 -26 -7 -9 -4 -25 2 -39 14 l-23 20 23 25 c28 30 29 30 57 6z
m-3401 -47 c-26 -67 -15 -174 25 -256 18 -34 18 -40 3 -90 -9 -29 -19 -62 -24
-73 -4 -11 -3 -51 3 -90 7 -51 7 -70 -2 -73 -6 -2 -11 -11 -11 -20 -1 -23 -35
-62 -54 -62 -9 0 -16 -4 -16 -10 0 -14 -94 -110 -108 -110 -16 0 -16 1 13 72
14 34 25 67 25 75 0 7 4 21 9 31 16 33 91 268 91 286 0 10 -6 24 -13 30 -8 6
-44 49 -80 96 -37 47 -80 101 -97 121 l-30 36 38 7 c20 4 75 15 122 26 109 23
113 23 106 4z m4357 -56 c-4 -19 -3 -20 6 -8 6 8 11 10 11 4 0 -6 -9 -21 -20
-34 -15 -18 -21 -20 -25 -8 -4 10 -18 13 -43 11 -27 -2 -33 0 -22 7 8 5 22 10
31 10 9 0 27 9 40 20 13 10 25 19 26 20 0 0 -1 -10 -4 -22z m-83 -112 c0 -2
-7 -6 -15 -10 -8 -3 -15 -1 -15 4 0 6 7 10 15 10 8 0 15 -2 15 -4z m-107 -113
c-19 -7 -16 -30 5 -35 10 -3 22 -23 30 -54 8 -27 23 -74 34 -104 11 -30 26
-71 33 -90 25 -69 45 -135 45 -149 0 -16 -19 -10 -76 27 -52 33 -70 69 -79
158 -4 38 -13 107 -21 153 -18 107 -19 101 14 100 15 0 21 -3 15 -6z m-3823
-93 c0 -5 -10 -10 -22 -9 -22 0 -22 1 -3 9 11 5 21 9 23 9 1 1 2 -3 2 -9z
m2355 -35 c340 -22 576 -45 610 -60 l30 -13 -30 -1 c-21 -1 -53 -20 -105 -62
-108 -87 -306 -217 -448 -293 -234 -127 -576 -266 -653 -266 -95 0 -527 196
-824 373 -123 74 -185 116 -297 200 l-87 65 67 11 c37 5 100 13 140 16 71 6
73 6 111 -27 120 -103 590 -342 826 -421 l70 -24 95 33 c142 48 261 98 400
169 198 99 425 241 399 249 -16 4 -227 20 -484 37 -93 6 -204 14 -245 18 -142
15 174 12 425 -4z"/>
<path d="M4735 4225 c-4 -11 -39 -98 -77 -194 -38 -95 -68 -175 -66 -176 4 -4
94 11 161 26 26 6 47 15 47 21 0 13 -50 321 -54 333 -2 6 -7 1 -11 -10z"/>
<path d="M9426 4355 c-51 -18 -91 -58 -124 -125 -24 -48 -27 -67 -27 -150 0
-87 2 -99 28 -138 49 -76 147 -102 233 -63 141 64 191 319 85 431 -53 56 -121
72 -195 45z"/>
<path d="M5758 4843 c7 -3 16 -2 19 1 4 3 -2 6 -13 5 -11 0 -14 -3 -6 -6z"/>
<path d="M5790 4799 c0 -5 5 -7 10 -4 6 3 10 8 10 11 0 2 -4 4 -10 4 -5 0 -10
-5 -10 -11z"/>
<path d="M5490 4791 c0 -6 5 -13 10 -16 6 -4 8 -10 6 -14 -3 -4 -1 -13 4 -21
7 -11 27 -10 126 4 65 9 120 19 123 22 3 3 -21 2 -54 -2 -74 -10 -119 -8 -123
6 -2 5 -17 10 -32 10 -16 0 -32 5 -35 10 -8 13 -25 13 -25 1z"/>
<path d="M5835 4780 c3 -5 8 -10 11 -10 2 0 4 5 4 10 0 6 -5 10 -11 10 -5 0
-7 -4 -4 -10z"/>
<path d="M5908 4783 c7 -3 16 -2 19 1 4 3 -2 6 -13 5 -11 0 -14 -3 -6 -6z"/>
</g>
</svg>
